<svg width="446" height="454" viewBox="0 0 446 454" fill="none" xmlns="http://www.w3.org/2000/svg">
<path d="M124.72 130.499C124.72 130.499 171.72 52.2444 265.67 82.8694C359.47 113.499 337.305 229.774 337.245 230.079C337.655 227.949 353.905 225.919 355.625 225.669C403.56 218.584 439.215 263.169 442.75 307.109C447.14 361.609 404.985 400.209 356.975 416.829" stroke="#CCDDE2" stroke-width="5.5" stroke-miterlimit="10"/>
<path d="M350.785 442.4C349.365 447.395 348.335 450.25 348.335 450.25H347.595C348.765 447.703 349.828 445.086 350.785 442.4Z" fill="#353642"/>
<path d="M220 245.256C220 245.256 218.31 255.516 216.56 264.806C211.56 264.861 206.56 264.901 201.615 264.941C199.115 250.871 201.83 239.851 205.055 232.506C209.12 241.776 215.26 244.596 220 245.256Z" fill="#68BBFF"/>
<path d="M302.18 282.276C292.013 276.802 281.177 272.676 269.945 270.001L266.265 269.366C266.265 269.366 263.525 263.136 263.51 263.116C262.225 259.851 260.095 255.516 259.435 252.076C258.631 248.013 258.435 243.852 258.855 239.731C259.575 233.611 262.425 220.666 267.575 216.586C271.87 213.206 273.64 213.916 276.075 208.631C277.825 204.861 278.535 198.526 275.135 195.746C271.365 192.696 269.755 194.246 265.245 194.716C248.105 196.416 238.31 184.081 232.01 169.826C231.01 167.511 229.97 165.066 228.335 163.096C226.46 160.826 223.865 160.316 221.74 158.481C220.835 157.691 220.215 156.401 220.65 155.281C220.906 154.746 221.279 154.274 221.74 153.901C225.756 150.202 230.578 147.488 235.825 145.976C244.124 143.577 252.893 143.303 261.325 145.181C270.125 148.096 278.035 153.616 283.36 162.051C290.705 173.706 292.475 185.796 288.36 197.846C284.145 210.186 279.44 224.681 287.36 236.556C297.905 252.331 304.26 263.426 302.18 282.276Z" fill="#68BBFF"/>
<path d="M216.58 264.804C211.58 264.859 206.58 264.899 201.635 264.939C163.955 265.134 127.89 264.609 90.0901 271.389" stroke="black" stroke-width="5.5" stroke-miterlimit="10"/>
<path d="M265.67 269C267.105 269.315 268.525 269.645 269.945 270C275.48 271.338 280.93 273.008 286.265 275C291.738 277.036 297.057 279.466 302.18 282.27C302.185 282.265 302.192 282.263 302.2 282.263C302.207 282.263 302.214 282.265 302.22 282.27C310.279 286.637 317.729 292.047 324.375 298.36C329.932 303.774 334.736 309.911 338.66 316.605C338.694 316.631 338.72 316.665 338.735 316.705C341.917 322.048 344.681 327.629 347 333.4C353.92 350.445 357.845 370.07 358.445 389.6C358.99 408.045 356.56 426.41 350.81 442.4C349.853 445.086 348.79 447.704 347.62 450.25C347.545 450.445 347.445 450.62 347.37 450.815" stroke="black" stroke-width="5.5" stroke-miterlimit="10"/>
<path d="M287.395 450.565C287.395 450.565 287.395 450.525 287.395 450.505C287.427 450.422 287.452 450.337 287.47 450.25" stroke="black" stroke-width="5.5" stroke-miterlimit="10"/>
<path d="M274.2 338.125C274.2 338.125 285.08 343.41 292.23 359.91C295.825 368.205 298.49 379.36 298.335 394.11C298.335 394.11 298.335 394.11 298.335 394.15C298.255 403.555 297.015 414.415 294.135 426.93V427" stroke="black" stroke-width="5.5" stroke-miterlimit="10"/>
<path d="M68.2949 128.656C70.2149 121.391 73.2949 113.901 75.6099 110.751C79.2499 105.851 83.9999 101.181 90.1099 101.601C94.0349 101.856 97.8899 104.026 98.0649 108.326C98.2299 112.991 93.3099 118.171 91.7299 122.556C90.2299 126.786 89.5449 131.711 90.3349 136.161C91.1249 140.611 95.1199 144.086 99.4299 145.041C101.065 145.471 102.803 145.236 104.265 144.386C108.485 141.716 107.6 134.606 107.43 130.411C107.23 125.706 107.235 120.386 111.25 117.166C114.2 114.801 118.675 116.371 120.85 118.971C124.63 123.471 124.815 130.246 125.005 135.786C125.57 152.476 122.605 168.476 112.885 182.526C107.885 189.781 102.735 196.291 100.71 205.191C94.4099 232.851 93.7099 252.026 90.0899 280.116" stroke="black" stroke-width="5.5" stroke-miterlimit="10"/>
<path d="M166.41 451C147.09 396.09 156.24 336.1 156.24 336.1L52.46 339.39C48.0415 339.53 43.644 338.721 39.5645 337.018C35.485 335.315 31.818 332.757 28.81 329.517C25.8025 326.277 23.524 322.43 22.1284 318.236C20.7329 314.041 20.2526 309.596 20.72 305.2L46.14 212.5L51.64 192.725C53.394 186.502 52.992 179.87 50.5 173.905L47.91 167.725C47.91 167.725 43.215 158.15 53.74 159.05C59.4 159.55 65.015 161.955 69.765 164.975C73.495 167.35 79.185 171.945 77.425 177.04C75.345 183.04 67.19 184.54 62.4 181.165" stroke="black" stroke-width="5.5" stroke-miterlimit="10"/>
<path d="M50.24 159.001C50.24 159.001 41.35 139.001 65.74 144.176C90.13 149.351 95.97 176.001 77.355 173.001" stroke="black" stroke-width="5.5" stroke-miterlimit="10"/>
<path d="M58.28 143.03C58.28 143.03 50.48 133.555 62.14 129.03C73.8 124.505 116.14 145.875 88.98 166.925" stroke="black" stroke-width="5.5" stroke-miterlimit="10"/>
<path d="M227 244.805C224.736 245.426 222.37 245.579 220.045 245.255C215.285 244.595 209.145 241.755 205.1 232.505C204.26 230.614 203.577 228.658 203.06 226.655C201 219 200.1 208.35 201.305 193.5C201.54 190.645 201.89 187.745 202.375 184.85C203.178 179.814 204.472 174.868 206.24 170.085C206.24 170.085 206.24 170.045 206.28 170.025C210.69 158.365 218.445 148.525 231.485 144.74C241.264 141.919 251.661 142.069 261.355 145.17C270.155 148.085 278.065 153.605 283.39 162.04C290.735 173.695 292.505 185.785 288.39 197.835C284.175 210.175 279.47 224.67 287.39 236.545C297.92 252.345 304.275 263.44 302.235 282.29" stroke="black" stroke-width="5.5" stroke-miterlimit="10"/>
<path d="M197.635 265.525C193.805 247.16 198.975 233.77 203.035 226.655" stroke="black" stroke-width="5.5" stroke-miterlimit="10"/>
<path d="M202.375 184.83C202.375 184.83 210.76 176.065 220.475 189.91" stroke="black" stroke-width="5.5" stroke-miterlimit="10"/>
<path d="M223.725 228.964C227.27 231.259 232.07 229.834 234.68 226.299C237.515 222.464 238.65 217.344 239.265 212.699C239.305 212.364 239.35 212.034 239.38 211.699C235.055 218.494 226.66 220.124 219.27 220.834C219.55 223.056 220.377 225.174 221.675 226.999C222.231 227.775 222.926 228.441 223.725 228.964Z" stroke="black" stroke-width="5.5" stroke-linecap="round" stroke-linejoin="round"/>
<path d="M262.23 259.555L262.21 259.535" stroke="black" stroke-width="5.5" stroke-miterlimit="10"/>
<path d="M229.245 182.134C229.245 182.134 232.095 177.519 241.835 180.919C251.575 184.319 251.69 189.874 251.69 189.874" stroke="black" stroke-width="5.5" stroke-miterlimit="10"/>
<path d="M207.105 193.61C207.105 193.61 211.605 191.335 215.13 193.61" stroke="black" stroke-width="5.5" stroke-miterlimit="10"/>
<path d="M231.355 195.704C231.355 195.704 235.855 193.429 239.355 195.704" stroke="black" stroke-width="5.5" stroke-miterlimit="10"/>
<path d="M220 245.255C220 245.255 218.31 255.515 216.56 264.805C216.305 266.125 216.06 267.425 215.84 268.71C214.695 274.965 213.78 280.525 213.74 282.21C213.45 296.21 226.685 304.285 239.47 304.15C257.41 303.955 267.9 287.265 266.21 270.55C265.105 267.5 263.975 264.45 262.87 261.4C261.45 257.49 259.605 253.685 258.805 249.565C258.098 245.506 258.021 241.363 258.575 237.28C259.295 231.18 260.48 222.085 265.63 218.005C269.925 214.625 274.41 212.405 276.86 207.12C278.61 203.35 278.53 198.495 275.13 195.715C271.36 192.665 265.395 193.035 260.885 193.48C231.795 196.455 226.955 167.01 219.085 162.875C212.635 159.47 207.795 167.11 206.28 169.945L206.22 170.065C206.217 170.094 206.205 170.12 206.185 170.14C205.91 170.64 205.775 170.975 205.775 170.975" stroke="black" stroke-width="5.5" stroke-miterlimit="10"/>
<path d="M219.255 197C219.255 197 216.215 206.95 216.45 208.44C216.685 209.93 220.23 208.89 220.23 208.89" stroke="black" stroke-width="5.5" stroke-miterlimit="10"/>
<path d="M243.077 207.501C247.734 202.852 247.649 195.215 242.887 190.445C238.125 185.674 230.489 185.576 225.832 190.225C221.174 194.874 221.26 202.51 226.022 207.281C230.784 212.051 238.42 212.15 243.077 207.501Z" stroke="black" stroke-width="5.5" stroke-miterlimit="10"/>
<path d="M212.684 203.807C217.341 199.158 217.256 191.522 212.494 186.751C207.731 181.981 200.096 181.882 195.438 186.531C190.781 191.18 190.866 198.816 195.629 203.587C200.391 208.357 208.027 208.456 212.684 203.807Z" stroke="black" stroke-width="5.5" stroke-miterlimit="10"/>
<path d="M203.795 185.905C205.122 185.899 206.436 186.171 207.652 186.704C208.868 187.237 209.959 188.019 210.854 189C211.749 189.98 212.428 191.137 212.849 192.396C213.269 193.655 213.421 194.989 213.295 196.31C213.084 198.532 212.05 200.595 210.396 202.094C208.742 203.593 206.587 204.419 204.355 204.41C203.027 204.416 201.713 204.144 200.497 203.611C199.282 203.078 198.191 202.296 197.296 201.316C196.401 200.335 195.721 199.178 195.301 197.919C194.88 196.66 194.728 195.327 194.855 194.005C195.066 191.783 196.1 189.72 197.754 188.221C199.408 186.723 201.563 185.896 203.795 185.905ZM203.795 184.525C201.223 184.519 198.741 185.474 196.836 187.202C194.932 188.931 193.742 191.309 193.5 193.87C193.242 196.697 194.094 199.513 195.875 201.722C197.657 203.932 200.228 205.362 203.045 205.71C203.476 205.762 203.91 205.788 204.345 205.79C206.92 205.8 209.405 204.847 211.313 203.118C213.221 201.389 214.413 199.009 214.655 196.445C214.912 193.619 214.061 190.803 212.279 188.593C210.498 186.383 207.927 184.953 205.11 184.605C204.678 184.554 204.244 184.527 203.81 184.525H203.795Z" fill="white"/>
<path d="M222.445 197.394L216.065 196.619" stroke="black" stroke-width="5.5" stroke-miterlimit="10"/>
<path d="M242.098 206.521C246.228 202.399 246.153 195.629 241.931 191.4C237.709 187.17 230.939 187.084 226.81 191.206C222.68 195.328 222.755 202.099 226.977 206.328C231.199 210.557 237.969 210.644 242.098 206.521Z" fill="#68BBFF"/>
<path d="M211.709 202.829C215.84 198.705 215.766 191.931 211.542 187.7C207.318 183.469 200.545 183.383 196.413 187.507C192.282 191.631 192.357 198.404 196.58 202.635C200.804 206.867 207.577 206.953 211.709 202.829Z" fill="#68BBFF"/>
<path d="M106.57 29.0804C92.0701 29.8204 80.0701 41.4404 78.9151 55.9004C78.5706 59.9349 79.0701 63.9969 80.3821 67.8279C81.6941 71.6584 83.7896 75.1739 86.5351 78.1504C88.5596 80.3774 90.9216 82.2724 93.5351 83.7654C94.2171 84.1589 94.8611 84.6139 95.4601 85.1254C99.3731 87.1009 103.694 88.1334 108.078 88.1404C112.462 88.1474 116.786 87.1284 120.705 85.1654C121.275 84.6359 121.908 84.1794 122.59 83.8054C125.311 82.2499 127.769 80.2754 129.875 77.9554C129.929 77.8799 129.987 77.8079 130.05 77.7404C133.871 73.4159 136.329 68.0599 137.117 62.3439C137.906 56.6284 136.989 50.8069 134.482 45.6099C131.975 40.4129 127.989 36.0719 123.024 33.1314C118.06 30.1909 112.338 28.7814 106.575 29.0804H106.57ZM124.72 74.8854C124.665 74.9269 124.619 74.9799 124.585 75.0404C122.953 76.8249 121.052 78.3434 118.95 79.5404C118.427 79.8269 117.943 80.1799 117.51 80.5904C114.488 82.1029 111.155 82.8904 107.775 82.8904C104.396 82.8904 101.062 82.1029 98.0401 80.5904C97.5721 80.1909 97.0701 79.8329 96.5401 79.5204C92.5016 77.1974 89.2806 73.6824 87.3186 69.4564C85.3571 65.2309 84.7506 60.5019 85.5831 55.9179C86.4151 51.3339 88.6456 47.1199 91.9676 43.8534C95.2896 40.5874 99.5406 38.4284 104.138 37.6739C108.735 36.9194 113.454 37.6054 117.646 39.6384C121.838 41.6714 125.298 44.9514 127.552 49.0284C129.806 53.1059 130.743 57.7804 130.235 62.4119C129.728 67.0429 127.799 71.4034 124.715 74.8954L124.72 74.8854Z" fill="#68BBFF"/>
<path d="M120.695 85.17C119.544 86.214 118.625 87.4885 117.998 88.911C117.371 90.333 117.05 91.8705 117.055 93.425V94.765C117.055 99.445 113.665 103.64 109.055 104.11C107.809 104.238 106.55 104.103 105.359 103.715C104.169 103.327 103.073 102.694 102.141 101.856C101.21 101.019 100.465 99.9955 99.9535 98.8525C99.4415 97.7095 99.1745 96.472 99.17 95.22V93.425C99.1675 91.862 98.8375 90.317 98.202 88.8895C97.5665 87.4615 96.6395 86.1825 95.48 85.135C99.393 87.1045 103.712 88.1335 108.093 88.1395C112.474 88.1455 116.796 87.1285 120.715 85.17H120.695Z" fill="#353642"/>
<path d="M120.695 85.17C119.544 86.214 118.625 87.4885 117.998 88.911C117.371 90.333 117.05 91.8705 117.055 93.425V94.765C117.055 99.445 113.665 103.64 109.055 104.11C107.809 104.238 106.55 104.103 105.359 103.715C104.169 103.327 103.073 102.694 102.141 101.856C101.21 101.019 100.465 99.9955 99.9535 98.8525C99.4415 97.7095 99.1745 96.472 99.17 95.22V93.425C99.1675 91.862 98.8375 90.317 98.202 88.8895C97.5665 87.4615 96.6395 86.1825 95.48 85.135C99.393 87.1045 103.712 88.1335 108.093 88.1395C112.474 88.1455 116.796 87.1285 120.715 85.17H120.695Z" stroke="black" stroke-width="5.5" stroke-miterlimit="10"/>
<path d="M137.39 58.3359C137.405 65.4899 134.789 72.3999 130.04 77.7509C129.98 77.8154 129.925 77.8839 129.875 77.9559C127.765 80.2799 125.301 82.2559 122.575 83.8109C121.897 84.1894 121.267 84.6459 120.695 85.1709C116.776 87.1299 112.454 88.1464 108.073 88.1404C103.692 88.1344 99.3734 87.1054 95.4599 85.1359C94.8624 84.6164 94.2159 84.1559 93.5299 83.7609C88.7004 80.9844 84.7614 76.8904 82.1734 71.9579C79.5849 67.0249 78.4549 61.4574 78.9149 55.9059C79.5239 48.3609 83.0304 41.3454 88.6989 36.3294C94.3679 31.3134 101.758 28.6874 109.321 29.0019C116.883 29.3159 124.031 32.5464 129.264 38.0149C134.497 43.4839 137.409 50.7664 137.39 58.3359Z" stroke="black" stroke-width="5.5" stroke-miterlimit="10"/>
<path d="M99.8251 88.1411L93.1151 65.9011L91.4351 59.6011C91.4351 59.4116 91.4976 59.2276 91.6126 59.0771C91.7281 58.9271 91.8896 58.8191 92.0726 58.7701C92.2556 58.7211 92.4496 58.7336 92.6246 58.8061C92.7996 58.8786 92.9456 59.0071 93.0401 59.1711C94.5401 61.8211 96.9101 65.1461 99.2701 65.0611C103.185 64.9211 99.9701 53.0361 96.7701 54.2811C93.5701 55.5261 99.7051 63.3811 106.025 64.3611C112.345 65.3411 110.615 54.7161 106.025 54.2961C101.435 53.8761 104.6 62.8261 112.85 64.3611C121.1 65.8961 119.56 56.8111 117.325 54.9961C115.09 53.1811 115.785 63.6611 120.965 65.3411C122.605 65.8761 123.91 64.7311 124.55 63.3061C124.92 62.4761 124.73 58.2761 123.97 59.5711C122.42 62.2261 122.115 65.5411 121.355 68.4711C119.74 74.6711 117.27 80.6061 115.855 86.8611" stroke="black" stroke-width="5.5" stroke-miterlimit="10"/>
<path d="M55.7251 450.999C59.2651 449.339 385.725 450.999 385.725 450.999" stroke="black" stroke-width="5.5" stroke-miterlimit="10"/>
<path d="M108.08 18.615L107.79 1" stroke="black" stroke-width="7.34" stroke-miterlimit="10"/>
<path d="M74.485 35L62.29 22.2852" stroke="black" stroke-width="7.34" stroke-miterlimit="10"/>
<path d="M141.8 35.79L154.265 23.3398" stroke="black" stroke-width="7.34" stroke-miterlimit="10"/>
<path d="M328.67 426.97L329.095 427.009C328.865 427.049 328.595 427.089 328.36 427.144H328L294.145 426.97H290.32L233.44 426.679C233.225 426.679 233.01 426.679 232.795 426.679C232.744 426.689 232.691 426.689 232.64 426.679C232.64 426.679 232.64 426.679 232.605 426.679C232.247 426.683 231.889 426.657 231.535 426.604C234.577 426.26 237.46 425.062 239.85 423.149C240.225 422.834 240.61 422.534 240.96 422.194L241 422.155C241.081 422.089 241.158 422.017 241.23 421.94C244.121 419.081 245.852 415.253 246.09 411.194C246.09 410.999 246.09 410.785 246.09 410.59V410.28C246.072 406.491 244.751 402.822 242.348 399.892C239.946 396.962 236.607 394.949 232.895 394.19C232.889 394.185 232.882 394.182 232.875 394.182C232.867 394.182 232.86 394.185 232.855 394.19C232.485 394.095 232.06 394.034 231.67 393.974L232.505 393.919C232.641 393.909 232.778 393.909 232.915 393.919C233.145 393.919 233.36 393.919 233.575 393.919L281.63 394.169L290.475 394.209L298.325 394.25H301.98H302.425C302.485 394.25 302.52 394.25 302.58 394.25C306.633 394.658 310.39 396.554 313.126 399.573C315.861 402.591 317.381 406.517 317.39 410.59C317.389 411.365 317.331 412.139 317.215 412.905C316.648 416.711 314.766 420.199 311.895 422.762C309.024 425.325 305.346 426.802 301.5 426.935C301.325 426.935 301.15 426.935 301 426.935H329.55C329.135 426.95 328.865 426.95 328.67 426.97Z" fill="white"/>
<path d="M252.215 446.841C253.295 447.926 254.579 448.788 255.993 449.375C257.408 449.962 258.924 450.263 260.455 450.261H232.565C227.225 450.261 224.325 448.961 222.21 446.841C220.025 444.654 218.796 441.692 218.79 438.601C218.79 432.211 224.035 426.961 232.565 426.961H260.455C258.15 426.957 255.896 427.638 253.979 428.916C252.061 430.195 250.566 432.015 249.684 434.144C248.801 436.273 248.571 438.616 249.021 440.877C249.472 443.137 250.584 445.213 252.215 446.841Z" fill="#D7E8F0"/>
<path d="M328.785 427.007C328.807 427.001 328.829 427.002 328.85 427.01C328.829 427.009 328.807 427.008 328.785 427.007C328.709 427.001 328.634 426.989 328.56 426.97H301.5C305.019 426.782 308.383 425.465 311.095 423.215C311.504 422.881 311.895 422.526 312.265 422.15C312.575 421.849 312.867 421.53 313.14 421.195C313.349 420.963 313.543 420.717 313.72 420.46C313.835 420.32 313.935 420.185 314.03 420.05C314.215 419.802 314.382 419.542 314.53 419.27C314.757 418.953 314.96 418.619 315.135 418.27C315.322 417.937 315.489 417.593 315.635 417.24C315.71 417.085 315.77 416.91 315.87 416.74C316.005 416.39 316.12 416.04 316.235 415.69C316.395 415.19 316.55 414.661 316.665 414.141C316.735 413.859 316.787 413.574 316.82 413.285C316.843 413.216 316.856 413.143 316.86 413.07C316.882 413.014 316.895 412.955 316.9 412.895C316.9 412.7 316.955 412.525 316.975 412.33V412.215C317.048 411.673 317.082 411.127 317.075 410.58C317.082 410.328 317.069 410.076 317.035 409.826V409.65C317.035 409.402 317.015 409.155 316.975 408.91C316.843 407.561 316.535 406.235 316.06 404.965C315.797 404.203 315.462 403.468 315.06 402.77C314.693 402.067 314.265 401.398 313.78 400.77C313.654 400.587 313.517 400.411 313.37 400.245C313.31 400.185 313.255 400.105 313.175 400.03C312.916 399.689 312.63 399.371 312.32 399.076C312.09 398.846 311.82 398.61 311.585 398.36C311.35 398.11 310.96 397.815 310.63 397.58C310.3 397.345 310.085 397.175 309.795 396.98C309.364 396.667 308.909 396.388 308.435 396.145C307.993 395.887 307.532 395.665 307.055 395.48C306.503 395.244 305.939 395.037 305.365 394.86C305.169 394.787 304.967 394.735 304.76 394.705C304.225 394.553 303.681 394.436 303.13 394.355C302.855 394.295 302.585 394.275 302.295 394.24H302.255C302.218 394.25 302.178 394.25 302.14 394.24H302.255H302.295C302.585 394.275 302.855 394.295 303.13 394.355C303.681 394.436 304.225 394.553 304.76 394.705C304.967 394.735 305.169 394.787 305.365 394.86C305.939 395.037 306.503 395.244 307.055 395.48C307.532 395.665 307.993 395.887 308.435 396.145C308.909 396.388 309.364 396.667 309.795 396.98C310.085 397.175 310.3 397.345 310.63 397.58C310.96 397.815 311.35 398.11 311.585 398.36C311.82 398.61 312.09 398.846 312.32 399.076C312.63 399.371 312.916 399.689 313.175 400.03C313.255 400.105 313.31 400.185 313.37 400.245C313.517 400.411 313.654 400.587 313.78 400.77C314.265 401.398 314.693 402.067 315.06 402.77C315.462 403.468 315.797 404.203 316.06 404.965C316.535 406.235 316.843 407.561 316.975 408.91C317.015 409.155 317.035 409.402 317.035 409.65V409.826C317.069 410.076 317.082 410.328 317.075 410.58C317.082 411.127 317.048 411.673 316.975 412.215V412.33C316.955 412.525 316.9 412.7 316.9 412.895C316.895 412.955 316.882 413.014 316.86 413.07C316.856 413.143 316.843 413.216 316.82 413.285C316.787 413.574 316.735 413.859 316.665 414.141C316.55 414.661 316.395 415.19 316.235 415.69C316.12 416.04 316.005 416.39 315.87 416.74C315.77 416.91 315.71 417.085 315.635 417.24C315.489 417.593 315.322 417.937 315.135 418.27C314.96 418.619 314.757 418.953 314.53 419.27C314.382 419.542 314.215 419.802 314.03 420.05C313.935 420.185 313.835 420.32 313.72 420.46C313.543 420.717 313.349 420.963 313.14 421.195C312.867 421.53 312.575 421.849 312.265 422.15C311.895 422.526 311.504 422.881 311.095 423.215C308.383 425.465 305.019 426.782 301.5 426.97H328.56C328.624 426.96 328.691 426.96 328.755 426.97H328.56C328.634 426.989 328.709 427.001 328.785 427.007Z" fill="#68BBFF"/>
<path d="M344.41 410.826C344.41 411.136 344.41 411.466 344.37 411.776C344.33 412.301 344.275 412.806 344.195 413.311C344.155 413.581 344.1 413.856 344.04 414.126C343.925 414.626 343.79 415.176 343.635 415.681C343.46 416.238 343.251 416.784 343.01 417.316C342.933 417.525 342.836 417.726 342.72 417.916C342.72 417.976 342.68 418.016 342.64 418.071C342.525 418.326 342.39 418.571 342.255 418.811C342.04 419.201 341.805 419.586 341.555 419.956C341.26 420.406 340.93 420.811 340.6 421.221C340.265 421.628 339.908 422.017 339.53 422.386C339.135 422.789 338.714 423.166 338.27 423.516L337.77 423.921C337.202 424.351 336.603 424.74 335.98 425.086C335.69 425.241 335.38 425.401 335.07 425.556C335.041 425.578 335.006 425.59 334.97 425.591C334.62 425.766 334.27 425.906 333.92 426.041C333.57 426.176 333.22 426.311 332.855 426.426C332.485 426.526 332.115 426.641 331.745 426.721L331.44 426.776C331.15 426.841 330.86 426.896 330.565 426.941C330.042 427.031 329.515 427.093 328.985 427.126C328.663 427.16 328.339 427.173 328.015 427.166C328.015 427.166 327.955 427.166 327.935 427.166L294.135 427.001L286.17 426.961L233.08 426.691C232.885 426.688 232.689 426.674 232.495 426.651C232.05 426.651 231.62 426.611 231.175 426.576C235.022 426.118 238.585 424.324 241.245 421.508C243.904 418.692 245.492 415.032 245.73 411.166C245.73 410.971 245.73 410.756 245.73 410.541V410.331C245.735 406.522 244.421 402.828 242.013 399.877C239.604 396.926 236.248 394.9 232.515 394.141C232.125 394.061 231.735 394.006 231.33 393.946C231.717 393.901 232.106 393.876 232.495 393.871C232.632 393.861 232.769 393.861 232.905 393.871H233.235L286.325 394.141L298.325 394.201H302.25H302.58L328.08 394.336C328.917 394.339 329.753 394.405 330.58 394.531C332.693 394.878 334.718 395.63 336.545 396.746C336.78 396.881 336.99 397.036 337.205 397.171C337.853 397.615 338.47 398.103 339.05 398.631C339.245 398.806 339.42 398.981 339.615 399.176C341.097 400.677 342.284 402.443 343.115 404.381L343.41 405.141C343.509 405.388 343.592 405.64 343.66 405.896C344.159 407.492 344.412 409.154 344.41 410.826Z" stroke="black" stroke-width="5.5" stroke-linecap="square" stroke-linejoin="round"/>
<path d="M317.05 410.531C317.053 411.077 317.026 411.623 316.97 412.166C316.97 412.206 316.97 412.241 316.97 412.281C316.93 412.536 316.895 412.781 316.855 413.021C316.851 413.094 316.837 413.166 316.815 413.236C316.781 413.524 316.73 413.809 316.66 414.091C316.545 414.591 316.39 415.136 316.23 415.641C316.115 415.991 316 416.341 315.865 416.691C315.765 416.866 315.705 417.041 315.63 417.191C315.483 417.544 315.316 417.888 315.13 418.221C314.954 418.569 314.752 418.904 314.525 419.221C314.377 419.492 314.21 419.753 314.025 420.001C313.93 420.136 313.83 420.271 313.715 420.411C313.537 420.668 313.344 420.913 313.135 421.146C312.862 421.481 312.569 421.8 312.26 422.101C311.888 422.469 311.497 422.817 311.09 423.146C308.384 425.407 305.021 426.737 301.5 426.936C301.325 426.936 301.15 426.936 301 426.936H233.155C232.535 426.936 231.895 426.901 231.25 426.841C231.668 426.791 232.084 426.719 232.495 426.626C232.527 426.637 232.562 426.637 232.595 426.626H232.63C235.782 425.968 238.674 424.404 240.95 422.126L240.99 422.086C243.884 419.161 245.575 415.257 245.73 411.146C245.73 410.951 245.73 410.736 245.73 410.521V410.501C245.699 406.493 244.21 402.634 241.542 399.644C238.873 396.653 235.208 394.737 231.23 394.251C231.66 394.196 232.085 394.176 232.515 394.156C232.624 394.136 232.736 394.136 232.845 394.156C232.85 394.151 232.857 394.148 232.865 394.148C232.872 394.148 232.879 394.151 232.885 394.156C232.968 394.146 233.052 394.146 233.135 394.156H300.625C301.095 394.156 301.54 394.156 301.99 394.216H302.145C302.182 394.226 302.222 394.226 302.26 394.216H302.34L303.135 394.331C303.685 394.412 304.23 394.528 304.765 394.681C304.96 394.721 305.175 394.776 305.37 394.836C305.944 395.012 306.508 395.219 307.06 395.456C307.525 395.651 307.995 395.886 308.44 396.121C308.91 396.371 309.364 396.65 309.8 396.956C310.09 397.151 310.365 397.341 310.635 397.556C310.905 397.771 311.275 398.056 311.59 398.336C311.905 398.616 312.09 398.836 312.325 399.051C312.62 399.366 312.91 399.676 313.18 400.006C313.26 400.081 313.315 400.161 313.375 400.221L313.785 400.746C314.253 401.385 314.68 402.053 315.065 402.746C315.442 403.457 315.776 404.19 316.065 404.941C316.524 406.215 316.831 407.54 316.98 408.886C316.98 409.141 317.02 409.386 317.04 409.626V409.801C317.05 410.026 317.05 410.281 317.05 410.531Z" stroke="black" stroke-width="5.5" stroke-linecap="square" stroke-linejoin="round"/>
<path d="M329.525 450.25H232.555C230.394 450.308 228.239 450 226.18 449.34C225.77 449.185 225.385 449.03 225.015 448.84C224.645 448.645 224.315 448.45 223.985 448.255C223.655 448.06 223.365 447.81 223.07 447.575C222.78 447.32 222.51 447.075 222.255 446.815C220.924 445.485 219.938 443.851 219.38 442.055C219.026 440.936 218.849 439.768 218.855 438.595C218.852 438.14 218.878 437.686 218.935 437.235C219.009 436.601 219.145 435.977 219.34 435.37C219.611 434.41 220.031 433.499 220.585 432.67C220.902 432.128 221.279 431.625 221.71 431.17C221.975 430.875 222.255 430.594 222.55 430.33C224.92 428.215 228.36 426.91 232.615 426.91H329.525C329.135 426.91 328.865 426.91 328.67 426.91C328.606 426.9 328.54 426.9 328.475 426.91C328.28 426.91 328.32 426.91 328.415 426.91C328.421 426.915 328.428 426.917 328.435 426.917C328.443 426.917 328.45 426.915 328.455 426.91C328.5 426.919 328.546 426.919 328.59 426.91C328.63 426.91 328.65 426.91 328.69 426.91C328.475 426.95 328.26 426.97 328.045 427.025H328C328 427.025 327.94 427.025 327.92 427.025C325.27 427.552 322.884 428.98 321.166 431.066C319.448 433.152 318.504 435.767 318.495 438.47C318.511 441.319 319.562 444.066 321.454 446.198C323.345 448.329 325.948 449.7 328.775 450.055C328.3 450.235 327.855 450.25 329.525 450.25Z" stroke="black" stroke-width="5.5" stroke-linecap="square" stroke-linejoin="round"/>
<path d="M328.745 450.194C328.3 450.234 327.855 450.249 327.405 450.249H260.44C258.912 450.248 257.4 449.945 255.989 449.359C254.579 448.772 253.298 447.912 252.22 446.829C250.89 445.499 249.903 443.866 249.345 442.069C249 440.949 248.831 439.781 248.845 438.609C248.851 435.522 250.078 432.562 252.259 430.377C254.44 428.192 257.398 426.96 260.485 426.949H327.405C327.735 426.949 328.085 426.949 328.405 426.989C328.463 426.998 328.522 426.998 328.58 426.989C328.62 426.989 328.64 426.989 328.68 426.989C328.465 427.029 328.25 427.049 328.035 427.104H328C328 427.104 327.94 427.104 327.92 427.104C325.27 427.631 322.884 429.059 321.166 431.145C319.448 433.231 318.505 435.847 318.495 438.549C318.511 441.399 319.562 444.146 321.454 446.277C323.345 448.409 325.948 449.78 328.775 450.134L328.745 450.194Z" stroke="black" stroke-width="5.5" stroke-linecap="square" stroke-linejoin="round"/>
<path d="M248.8 438.609C248.8 441.696 250.026 444.657 252.209 446.84C254.392 449.023 257.353 450.249 260.44 450.249H232.555C227.23 450.249 224.315 448.949 222.195 446.829C221.114 445.75 220.258 444.469 219.674 443.058C219.091 441.648 218.792 440.136 218.795 438.609C218.795 432.199 224.025 426.949 232.555 426.949H260.44C257.352 426.96 254.395 428.192 252.214 430.377C250.032 432.562 248.805 435.522 248.8 438.609Z" stroke="black" stroke-width="5.5" stroke-linecap="square" stroke-linejoin="round"/>
<path d="M329.525 450.251H327.405C327.855 450.251 328.3 450.251 328.745 450.196C328.3 450.236 327.855 450.251 329.525 450.251Z" stroke="black" stroke-width="5.5" stroke-linecap="square" stroke-linejoin="round"/>
<path d="M328.59 426.999C328.205 426.999 327.795 426.939 327.405 426.939H329.525C328.045 426.949 328.22 426.999 328.59 426.999Z" stroke="black" stroke-width="5.5" stroke-linecap="square" stroke-linejoin="round"/>
<path opacity="0.54" d="M38 406.39L3.29 317.47C2.85995 315.75 2.82765 313.954 3.1955 312.22C3.56335 310.485 4.3217 308.857 5.4129 307.459C6.50415 306.061 7.89955 304.931 9.49315 304.153C11.0868 303.375 12.8367 302.971 14.61 302.97H152.5C155.595 302.97 158.601 304.011 161.033 305.927C163.465 307.842 165.181 310.521 165.905 313.53L203.905 402.44C204.317 404.156 204.334 405.943 203.956 407.667C203.578 409.39 202.814 411.005 201.721 412.391C200.629 413.777 199.237 414.896 197.649 415.666C196.061 416.436 194.319 416.836 192.555 416.835H51.365C48.2915 416.835 45.306 415.807 42.884 413.914C40.4625 412.021 38.743 409.373 38 406.39Z" fill="white"/>
<path d="M38 406.39L3.29 317.47C2.85995 315.75 2.82765 313.954 3.1955 312.22C3.56335 310.485 4.3217 308.857 5.4129 307.459C6.50415 306.061 7.89955 304.931 9.49315 304.153C11.0868 303.375 12.8367 302.971 14.61 302.97H152.5C155.595 302.97 158.601 304.011 161.033 305.927C163.465 307.842 165.181 310.521 165.905 313.53L203.905 402.44C204.317 404.156 204.334 405.943 203.956 407.667C203.578 409.39 202.814 411.005 201.721 412.391C200.629 413.777 199.237 414.896 197.649 415.666C196.061 416.436 194.319 416.836 192.555 416.835H51.365C48.2915 416.835 45.306 415.807 42.884 413.914C40.4625 412.021 38.743 409.373 38 406.39Z" fill="#68BBFF"/>
<path d="M38 406.39L3.29 317.47C2.85995 315.75 2.82765 313.954 3.1955 312.22C3.56335 310.485 4.3217 308.857 5.4129 307.459C6.50415 306.061 7.89955 304.931 9.49315 304.153C11.0868 303.375 12.8367 302.971 14.61 302.97H152.5C155.595 302.97 158.601 304.011 161.033 305.927C163.465 307.842 165.181 310.521 165.905 313.53L203.905 402.44C204.317 404.156 204.334 405.943 203.956 407.667C203.578 409.39 202.814 411.005 201.721 412.391C200.629 413.777 199.237 414.896 197.649 415.666C196.061 416.436 194.319 416.836 192.555 416.835H51.365C48.2915 416.835 45.306 415.807 42.884 413.914C40.4625 412.021 38.743 409.373 38 406.39Z" stroke="black" stroke-width="5.5" stroke-linecap="square" stroke-linejoin="round"/>
<path d="M43.07 402.79L11.07 320.755C10.6728 319.169 10.6421 317.513 10.9804 315.913C11.3187 314.313 12.017 312.812 13.0223 311.522C14.0277 310.232 15.3136 309.189 16.7825 308.47C18.2514 307.752 19.8648 307.377 21.5 307.375H148.69C151.546 307.376 154.318 308.337 156.561 310.104C158.804 311.872 160.387 314.343 161.055 317.12L196.11 399.12C196.49 400.703 196.506 402.351 196.158 403.942C195.809 405.532 195.104 407.023 194.096 408.302C193.089 409.58 191.804 410.613 190.339 411.324C188.875 412.035 187.268 412.404 185.64 412.405H55.41C52.576 412.406 49.8225 411.46 47.587 409.719C45.3515 407.977 43.762 405.539 43.07 402.79Z" fill="#68BBFF"/>
<path d="M139.5 322.459C137.815 319.924 135.06 318.799 133.34 319.959C131.62 321.119 131.595 324.084 133.28 326.619C133.545 327.005 133.843 327.368 134.17 327.704L121.67 354.089C119.67 352.759 117.485 352.429 115.915 353.479C115.408 353.848 114.988 354.323 114.685 354.872C114.381 355.421 114.202 356.029 114.16 356.654L105.62 353.769L98.155 351.269L95.715 350.469C95.409 349.553 94.984 348.68 94.45 347.874C92.08 344.314 88.21 342.734 85.795 344.339C83.38 345.944 83.355 350.049 85.66 353.584L71.455 372.999C68.355 370.454 64.7 369.669 62.17 371.349C58.73 373.644 58.67 379.619 62.055 384.699C62.19 384.899 62.345 385.069 62.485 385.259L53 398.219L52.915 398.344C52.648 398.705 52.4565 399.116 52.3535 399.552C52.25 399.989 52.2365 400.442 52.314 400.883C52.3915 401.325 52.558 401.747 52.8035 402.122C53.049 402.498 53.368 402.819 53.742 403.067C54.1155 403.315 54.536 403.485 54.9775 403.565C55.4185 403.645 55.8715 403.635 56.309 403.535C56.746 403.434 57.1585 403.246 57.5205 402.981C57.8825 402.716 58.187 402.381 58.415 401.994L66.85 389.299C69.51 390.844 72.35 391.139 74.415 389.759C77.705 387.569 77.86 382.029 74.915 377.109L88.54 356.544C90.54 357.909 92.77 358.259 94.36 357.204C95.249 356.578 95.8545 355.625 96.045 354.554L97.045 354.839L104.64 356.914L114.36 359.534C114.655 360.698 115.145 361.804 115.81 362.804C118.175 366.359 122.05 367.944 124.465 366.339C126.88 364.734 126.91 360.549 124.545 356.994C124.196 356.478 123.804 355.991 123.375 355.539L135.27 328.644C136.705 329.644 138.27 329.869 139.425 329.114C141.17 327.999 141.195 324.999 139.5 322.459Z" fill="white"/>
<path d="M48.9999 323.915H30.5749C29.7274 323.919 28.8974 323.674 28.1869 323.212C27.4759 322.751 26.9159 322.091 26.5749 321.315C26.4699 321.077 26.4139 320.82 26.4099 320.56C26.4154 320.058 26.6179 319.578 26.9744 319.224C27.3314 318.871 27.8129 318.671 28.3149 318.67H47.9099C46.9999 320.225 47.4999 322.385 48.9999 323.915Z" fill="#D7E8F0"/>
<path d="M60.9299 322.025C60.9274 322.526 60.7264 323.006 60.3719 323.36C60.0169 323.714 59.5364 323.913 59.0349 323.915H48.9999C47.4699 322.385 46.9999 320.225 47.9249 318.67H56.7749C57.6209 318.665 58.4499 318.907 59.1599 319.366C59.8704 319.825 60.4319 320.482 60.7749 321.255C60.8784 321.498 60.9309 321.76 60.9299 322.025Z" fill="#68BBFF"/>
<path d="M56.3199 323.915C56.2659 324.015 56.2059 324.112 56.1399 324.205C54.8199 326 51.9699 326.17 49.7549 324.55C49.4899 324.359 49.2404 324.146 49.0099 323.915C47.4799 322.385 47.0099 320.225 47.9349 318.67C47.9849 318.567 48.0454 318.47 48.1149 318.38C49.4199 316.575 52.2699 316.42 54.4849 318.025C54.7539 318.218 55.0069 318.434 55.2399 318.67C56.7599 320.205 57.2299 322.345 56.3199 323.915Z" fill="white"/>
<path d="M65.565 333.595C65.561 334.098 65.3585 334.579 65.002 334.933C64.645 335.287 64.1625 335.486 63.66 335.486H44.315C45.25 333.916 44.785 331.776 43.25 330.241H61.42C62.2675 330.237 63.0975 330.481 63.808 330.943C64.519 331.405 65.079 332.065 65.42 332.841C65.518 333.08 65.5675 333.336 65.565 333.595Z" fill="#68BBFF"/>
<path d="M44.3151 335.501H35.2151C34.3691 335.505 33.5401 335.263 32.8301 334.804C32.1196 334.345 31.5581 333.689 31.2151 332.916C31.1101 332.674 31.0541 332.414 31.0501 332.151C31.0486 331.902 31.0966 331.655 31.1911 331.425C31.2856 331.195 31.4246 330.986 31.6006 330.809C31.7761 330.633 31.9851 330.494 32.2146 330.399C32.4446 330.304 32.6911 330.255 32.9401 330.256H43.2501C44.7851 331.776 45.2501 333.916 44.3151 335.501Z" fill="#D7E8F0"/>
<path d="M44.315 335.5C44.2735 335.604 44.218 335.702 44.15 335.79C42.845 337.6 39.99 337.755 37.775 336.15C37.501 335.953 37.242 335.736 37 335.5C35.5 333.97 35 331.825 35.925 330.255C35.974 330.154 36.0345 330.058 36.105 329.97C37.42 328.17 40.27 328.005 42.49 329.62C42.7525 329.813 43 330.025 43.23 330.255C44.785 331.775 45.25 333.915 44.315 335.5Z" fill="white"/>
<path d="M50.7599 347H39.1799C38.3339 347.002 37.5054 346.759 36.7954 346.299C36.0854 345.839 35.5239 345.183 35.1799 344.41C35.0749 344.172 35.0189 343.915 35.0149 343.655C35.0164 343.15 35.2174 342.667 35.5744 342.31C35.9314 341.953 36.4149 341.752 36.9199 341.75H49.6599C48.7699 343.295 49.2399 345.44 50.7599 347Z" fill="#68BBFF"/>
<path d="M69.53 345.095C69.5275 345.595 69.3265 346.074 68.971 346.427C68.616 346.779 68.1355 346.976 67.635 346.974H50.76C49.26 345.439 48.76 343.294 49.68 341.724H65.385C66.2285 341.724 67.054 341.97 67.7605 342.431C68.4665 342.893 69.0225 343.551 69.36 344.324C69.4685 344.567 69.5265 344.829 69.53 345.095Z" fill="#D7E8F0"/>
<path d="M58.065 347C58.016 347.101 57.9555 347.197 57.885 347.285C56.58 349.095 53.73 349.25 51.515 347.645C51.249 347.447 50.997 347.231 50.76 347C49.26 345.465 48.76 343.32 49.68 341.75C49.7325 341.65 49.793 341.555 49.86 341.465C51.18 339.67 54.03 339.51 56.245 341.115C56.508 341.309 56.757 341.521 56.99 341.75C58.5 343.26 59 345.415 58.065 347Z" fill="white"/>
<path d="M125.635 401.17H114.05C113.204 401.173 112.375 400.929 111.665 400.469C110.955 400.009 110.394 399.353 110.05 398.58C109.941 398.343 109.883 398.086 109.88 397.825C109.881 397.32 110.082 396.837 110.439 396.48C110.796 396.123 111.28 395.921 111.785 395.92H124.53C123.645 397.5 124.115 399.635 125.635 401.17Z" fill="#68BBFF"/>
<path d="M171.61 399.29C171.609 399.538 171.56 399.783 171.464 400.011C171.369 400.24 171.23 400.447 171.054 400.622C170.879 400.796 170.67 400.934 170.441 401.029C170.213 401.123 169.967 401.171 169.72 401.17H125.635C124.135 399.635 123.635 397.49 124.555 395.92H167.465C168.308 395.92 169.134 396.165 169.84 396.627C170.546 397.089 171.102 397.747 171.44 398.52C171.548 398.763 171.606 399.025 171.61 399.29Z" fill="#D7E8F0"/>
<path d="M132.94 401.17C132.891 401.272 132.83 401.367 132.76 401.455C131.455 403.265 128.605 403.42 126.39 401.815C126.123 401.619 125.871 401.403 125.635 401.17C124.135 399.635 123.635 397.49 124.555 395.92C124.607 395.821 124.668 395.725 124.735 395.635C126.055 393.84 128.905 393.68 131.12 395.285C131.383 395.479 131.632 395.691 131.865 395.92C133.395 397.455 133.865 399.61 132.94 401.17Z" fill="white"/>
</svg>
